<svg id="Calque_1" data-name="Calque 1" xmlns="http://www.w3.org/2000/svg" viewBox="0 0 240.86 78.87"><title>2080-logo</title><path d="M109,15.67a13.62,13.62,0,0,0-3.4.44,7.72,7.72,0,0,0-3,1.56,8.41,8.41,0,0,0-2.19,3,10.73,10.73,0,0,0-.85,4.52v7.62h14.69v2.52H99.5V64.67H93.2V26.85q0-6.63,4.05-10.47T109,12.49h5.15v3.18H109Z" fill="#004b7a"/><path d="M137.66,34.55a7.42,7.42,0,0,0-1.32-2.94,4.79,4.79,0,0,0-2.19-1.56,8.2,8.2,0,0,0-3-.42A9.54,9.54,0,0,0,128,30a5.45,5.45,0,0,0-2.44,1.54,7.32,7.32,0,0,0-1.56,3,16.46,16.46,0,0,0-.55,4.6V53.55h-6.3V40.83q0-6.69,3.54-10.55t10.17-3.87a17.05,17.05,0,0,1,6.25,1,10.56,10.56,0,0,1,4.2,2.88,11.53,11.53,0,0,1,2.36,4.52,22.41,22.41,0,0,1,.74,6V53.55h-6.3V39.13A20.12,20.12,0,0,0,137.66,34.55Z" fill="#004b7a"/><path d="M170.72,39a16.25,16.25,0,0,0-.55-4.58,7.38,7.38,0,0,0-1.56-2.94,5.63,5.63,0,0,0-2.44-1.56,9,9,0,0,0-3.12-.41,9.51,9.51,0,0,0-3.12.38,5.45,5.45,0,0,0-2.44,1.53,7.36,7.36,0,0,0-1.56,3,16.51,16.51,0,0,0-.55,4.6v1.92a16.49,16.49,0,0,0,.55,4.6,7.35,7.35,0,0,0,1.56,3A5.45,5.45,0,0,0,159.92,50a9.56,9.56,0,0,0,3.13.38,6.25,6.25,0,0,0,5.56-2.85q2.11-3,2.11-8.44V39ZM177,53.6h-6.36V53.43L170.72,48a18.1,18.1,0,0,1-1.84,2.8A8.71,8.71,0,0,1,167,52.48a5.8,5.8,0,0,1-2,.88,9.87,9.87,0,0,1-2.27.25,17.76,17.76,0,0,1-6.14-.93A10.5,10.5,0,0,1,152.47,50a11.48,11.48,0,0,1-2.47-4.3,20.58,20.58,0,0,1-.93-5.7,20.55,20.55,0,0,1,.93-5.7,11.45,11.45,0,0,1,2.47-4.3,10.74,10.74,0,0,1,4.17-2.74,17.27,17.27,0,0,1,6.14-1,19.05,19.05,0,0,1,6.44,1,10.68,10.68,0,0,1,6.88,7A21,21,0,0,1,177,40V53.6Z" fill="#004b7a"/><path d="M202.85,34.34a8.13,8.13,0,0,0-1.56-3.07,5.81,5.81,0,0,0-2.44-1.7,8.21,8.21,0,0,0-3.13-.46,8.55,8.55,0,0,0-3.12.44,5.59,5.59,0,0,0-2.44,1.67,8.17,8.17,0,0,0-1.56,3.1,17.11,17.11,0,0,0-.54,4.66v1.92a16.51,16.51,0,0,0,.54,4.6,7.41,7.41,0,0,0,1.56,3A5.45,5.45,0,0,0,192.6,50a9.55,9.55,0,0,0,3.12.38,9.11,9.11,0,0,0,3.13-.41,5.67,5.67,0,0,0,2.44-1.56,7.3,7.3,0,0,0,1.56-2.93,16.16,16.16,0,0,0,.55-4.58V39A16.77,16.77,0,0,0,202.85,34.34Zm5.92,11.26a10.68,10.68,0,0,1-6.88,7,19.08,19.08,0,0,1-6.44,1,17.35,17.35,0,0,1-6.14-1,10.85,10.85,0,0,1-4.17-2.74,11.57,11.57,0,0,1-2.46-4.3,20.66,20.66,0,0,1-.93-5.7,21.35,21.35,0,0,1,.93-5.76,12,12,0,0,1,2.46-4.41,11,11,0,0,1,4.17-2.85,16.48,16.48,0,0,1,6.14-1,14.92,14.92,0,0,1,4.36.58,24.78,24.78,0,0,1,3.49,1.34l0.11-15.35h6.3V39.9A20.85,20.85,0,0,1,208.77,45.6Z" fill="#004b7a"/><path d="M224.54,30.35a6.91,6.91,0,0,0-2.09,1.92A9.6,9.6,0,0,0,221.11,35a15.35,15.35,0,0,0-.66,3.18h14.36q-0.44-4.49-2.36-6.52a6.48,6.48,0,0,0-4.93-2h-0.11A5.49,5.49,0,0,0,224.54,30.35ZM220.4,41.56a18.48,18.48,0,0,0,.63,3.07,8.85,8.85,0,0,0,1.48,2.91,8.14,8.14,0,0,0,2.66,2.19,8.65,8.65,0,0,0,4.11.88,22.32,22.32,0,0,0,5.49-.93l0.44,1.81q-1.7.77-3.46,1.43a8.84,8.84,0,0,1-3.67.55,14.1,14.1,0,0,1-5.34-1,12.82,12.82,0,0,1-4.25-2.76,13.39,13.39,0,0,1-2.88-4.25A14.91,14.91,0,0,1,214.43,40a13.44,13.44,0,0,1,1-5.15,13.19,13.19,0,0,1,2.77-4.25,13.6,13.6,0,0,1,4.19-2.93,13.91,13.91,0,0,1,5.26-1.2,14.3,14.3,0,0,1,5.48,1.12,12.82,12.82,0,0,1,4.22,2.91A12.66,12.66,0,0,1,240,34.78a12.8,12.8,0,0,1,.82,5.13c0,0.18,0,.45,0,0.8s0,0.63,0,.85H220.4Z" fill="#004b7a"/><path d="M32.62,51.43C30.62,33,35.94,16.32,50.3,12.94,56.21,8,65.63,10.21,65.63,10.21,57.08-5.46-5.81-10.08.43,48.64,10.37,18.35,30.26,17,30.26,17S9.41,23.52,2.28,52.8c0,0,6.24,14.8,22.42,13.18a21.46,21.46,0,0,0,5-1.11C32,62.13,33.33,57.91,32.62,51.43Z" fill="#7ca439"/><path d="M77.37,29.2c-9.14,30.54-29,32.45-29,32.45s20.67-7.1,27-36.56c0,0-6.63-14.63-22.77-12.58a22.5,22.5,0,0,0-2.34.43c-3.07,2.55-5.19,7-4.56,14.67,1.42,17.25-3.53,32.87-16,37.26-5.52,6.71-16.53,4.47-16.53,4.47C22.17,84.77,85.15,87.74,77.37,29.2Z" fill="#adc23b"/><path d="M45.75,27.6c-0.63-7.66,1.49-12.12,4.56-14.66C35.94,16.32,30.62,33,32.62,51.43c0.71,6.48-.63,10.7-2.88,13.44C42.22,60.47,47.17,44.85,45.75,27.6Z" fill="#3f8133"/></svg>